# xmcd CD database file
#
# Track frame offsets:
#	150
#	17884
#	34349
#	44498
#	61050
#	79117
#	96777
#	116324
#	129498
#	145915
#	159445
#	178312
#	188434
#	199726
#	218736
#
# Disc length: 3135 seconds
#
# Revision: 2
# Processed by: cddbd v1.5.2PL0 Copyright (c) Steve Scherf et al.
# Submitted via: CDex 1.51
#
DISCID=cb0c3d0f
DTITLE=A Tribe Called Quest - The Low End Theory
DYEAR=1991
DGENRE=J-Hip Hop
TTITLE0=Excursions
TTITLE1=Buggin' Out
TTITLE2=Rap Promoter
TTITLE3=Butter
TTITLE4=Verses From The Abstract
TTITLE5=Show Business
TTITLE6=Vibes And Stuff
TTITLE7=The Infamous Date Rape
TTITLE8=Check The Rhime
TTITLE9=Everything Is Fair
TTITLE10=Jazz (We've Got)
TTITLE11=Skypager
TTITLE12=What?
TTITLE13=Scenario
TTITLE14=Check The Rhime (Mr. Muhammad's Mix)
EXTD=YEAR: 1991
EXTT0=
EXTT1=
EXTT2=
EXTT3=
EXTT4=
EXTT5=
EXTT6=
EXTT7=
EXTT8=
EXTT9=
EXTT10=
EXTT11=
EXTT12=
EXTT13=
EXTT14=
PLAYORDER=
